<?xml version="1.0" standalone="no"?>
<!DOCTYPE svg PUBLIC "-//W3C//DTD SVG 20010904//EN"
 "http://www.w3.org/TR/2001/REC-SVG-20010904/DTD/svg10.dtd">
<svg version="1.0" xmlns="http://www.w3.org/2000/svg"
 width="128.000000pt" height="128.000000pt" viewBox="0 0 128.000000 128.000000"
 preserveAspectRatio="xMidYMid meet">
<metadata>
Created by potrace 1.14, written by Peter Selinger 2001-2017
</metadata>
<g transform="translate(0.000000,128.000000) scale(0.100000,-0.100000)"
fill="#000000" stroke="none">
<path d="M502 1184 c-76 -20 -83 -25 -68 -46 11 -15 17 -15 79 2 171 48 365
-6 494 -137 176 -179 199 -454 54 -659 -74 -106 -163 -168 -287 -202 -282 -78
-572 98 -640 389 -3 13 -7 58 -9 99 -4 121 40 249 116 337 28 33 30 63 4 63
-26 0 -108 -123 -135 -205 -21 -60 -21 -63 -27 -160 -25 -430 425 -717 817
-522 75 37 191 148 229 218 65 120 88 291 56 414 -52 200 -211 359 -410 410
-73 19 -203 18 -273 -1z"/>
<path d="M281 1154 c-64 -53 -25 -154 59 -154 84 0 123 101 59 154 -17 15 -43
26 -59 26 -16 0 -42 -11 -59 -26z"/>
<path d="M535 987 c-99 -33 -181 -104 -223 -195 -23 -49 -27 -70 -27 -152 0
-83 3 -102 27 -150 15 -30 34 -63 42 -74 14 -17 16 -17 31 -2 15 14 14 18 -6
45 -60 82 -72 215 -27 312 93 200 357 248 512 93 92 -92 119 -242 64 -355 -58
-117 -160 -183 -283 -183 -38 0 -80 3 -91 7 -17 6 -23 3 -27 -13 -8 -30 22
-39 123 -36 68 1 96 7 142 28 72 34 137 98 174 174 26 53 29 69 29 154 0 84
-3 102 -29 153 -36 75 -104 143 -175 175 -67 31 -192 40 -256 19z"/>
<path d="M559 777 c-57 -38 -81 -84 -77 -144 13 -163 203 -210 295 -74 89 132
-86 307 -218 218z"/>
<path d="M406 409 c-51 -40 -23 -119 43 -121 66 -2 97 80 45 121 -15 12 -34
21 -44 21 -10 0 -29 -9 -44 -21z"/>
</g>
</svg>
